<?xml version="1.0" encoding="UTF-8"?>
<svg id="Capa_1" data-name="Capa 1" xmlns="http://www.w3.org/2000/svg" viewBox="0 0 1080 400">
  <defs>
    <style>
      .cls-1 {
        fill: #5b6670;
      }
    </style>
  </defs>
  <g>
    <g>
      <path class="cls-1" d="M469.08,177.04v-72.19h20.32v72.19h-20.32Z"/>
      <path class="cls-1" d="M502.44,177.04v-72.19h20.32v72.19h-20.32Z"/>
      <path class="cls-1" d="M593.53,177.04h-57.75v-72.19h56.31v17.12h-36.2v10.31h34.13v16.6h-34.13v10.93h37.64v17.22Z"/>
      <path class="cls-1" d="M655.43,126.2c-5.26-4.95-11.65-6.29-16.5-6.29-11.76,0-19.39,7.01-19.39,21.14,0,9.28,4.85,20.73,19.39,20.73,3.82,0,9.8-.72,13.92-3.71v-9.28h-18.25v-15.98h35.27v32.07c-4.54,9.18-17.12,14.13-31.04,14.13-28.57,0-39.39-19.08-39.39-37.95s12.37-38.26,39.5-38.26c10,0,18.87,2.06,28.36,11.65l-11.86,11.76Z"/>
    </g>
    <g>
      <path class="cls-1" d="M467.92,223.44v-32.82h9.24v32.82h-9.24Z"/>
      <path class="cls-1" d="M498.5,223.44v-12.8c0-2.86-1.64-3.84-3.24-3.84-2.06,0-3.98,1.41-3.98,4.45v12.19h-8.53v-23.16h7.64l.38,2.53c1.97-2.3,4.88-3.14,7.31-3.09,4.88.05,9.05,2.63,9.05,10.88v12.85h-8.63Z"/>
      <path class="cls-1" d="M512.99,214.72c3.52,2.3,6.33,2.48,8.2,2.58,1.55,0,2.35-.37,2.35-1.12s-.75-1.13-2.44-1.27c-4.5-.14-9.94-1.97-9.94-7.6s5.25-7.6,10.69-7.6c3.75,0,7.22,1.12,9.47,2.81l-3.66,5.16c-1.27-.8-3.94-1.45-5.81-1.41-1.22,0-2.06.28-2.06,1.12,0,.42.33,1.08,1.73,1.13,4.83.14,10.64,1.5,10.64,7.64,0,5.72-5.2,7.88-10.78,7.88-4.03,0-8.58-1.12-11.21-3.05l2.81-6.28Z"/>
      <path class="cls-1" d="M546.05,193.71v6.7h5.2v6.61h-5.25v7.6c.05,1.64.98,2.25,2.3,2.25.84,0,1.83-.33,2.53-.8l1.88,6.38c-1.97,1.13-4.27,1.55-6.66,1.55-4.6,0-8.72-2.11-8.58-9.38v-7.6h-3.7v-6.61h3.7v-5.77l8.58-.94Z"/>
      <path class="cls-1" d="M560.03,189.96c2.39,0,4.83,1.45,4.83,4.36s-2.44,4.31-4.83,4.31-4.88-1.45-4.88-4.31,2.44-4.36,4.88-4.36ZM564.35,223.44v-22.79h-8.67v22.79h8.67Z"/>
      <path class="cls-1" d="M579.58,193.71v6.7h5.2v6.61h-5.25v7.6c.05,1.64.98,2.25,2.3,2.25.84,0,1.83-.33,2.53-.8l1.88,6.38c-1.97,1.13-4.27,1.55-6.66,1.55-4.6,0-8.72-2.11-8.58-9.38v-7.6h-3.7v-6.61h3.7v-5.77l8.58-.94Z"/>
      <path class="cls-1" d="M597.33,200.28v12.8c0,2.86,1.64,3.84,3.24,3.84,2.06,0,3.98-1.27,3.98-4.31v-12.33h8.53v23.16h-7.64l-.38-2.53c-1.97,2.3-4.88,3.14-7.31,3.1-4.88-.05-9.05-2.63-9.05-10.88v-12.85h8.63Z"/>
      <path class="cls-1" d="M628.64,193.71v6.7h5.2v6.61h-5.25v7.6c.05,1.64.98,2.25,2.3,2.25.84,0,1.83-.33,2.53-.8l1.88,6.38c-1.97,1.13-4.27,1.55-6.66,1.55-4.59,0-8.72-2.11-8.58-9.38v-7.6h-3.7v-6.61h3.7v-5.77l8.58-.94Z"/>
      <path class="cls-1" d="M663.1,211.9c0,8.44-6.7,12.1-13.22,12.1s-13.22-3.66-13.22-12.1,6.52-12.14,13.22-12.14,13.22,3.7,13.22,12.14ZM654.66,211.9c0-2.67-1.73-5.06-4.78-5.06s-4.78,2.39-4.78,5.06,1.73,5.02,4.78,5.02,4.78-2.2,4.78-5.02Z"/>
      <path class="cls-1" d="M694,190.62h8.63v32.82h-7.69l-.37-2.49c-1.97,2.25-5.06,3.05-7.64,2.91-6.8-.42-10.6-4.69-10.6-12s4.5-12.1,11.25-12.1c2.95,0,5.16.94,6.42,2.49v-11.63ZM684.9,211.86c0,3.23,2.06,5.06,4.64,5.06,2.91,0,4.64-2.39,4.64-4.83,0-2.81-1.59-5.34-4.64-5.34-2.58,0-4.64,1.88-4.64,5.11Z"/>
      <path class="cls-1" d="M731.23,214.29h-16.18c.61,2.06,3.28,2.95,5.16,2.95,2.53,0,4.45-.75,5.96-1.88l4.22,4.74c-2.77,2.58-6.56,3.84-10.55,3.84-7.31,0-13.5-3.61-13.5-12.05s6.61-12.19,12.89-12.19c8.21,0,13.97,5.44,12,14.58ZM723.49,208.76c-.24-3.66-7.83-3.8-8.39,0h8.39Z"/>
      <path class="cls-1" d="M746.7,223.44v-32.82h9.24v32.82h-9.24Z"/>
      <path class="cls-1" d="M777.29,223.44v-12.8c0-2.86-1.64-3.84-3.23-3.84-2.06,0-3.98,1.41-3.98,4.45v12.19h-8.53v-23.16h7.64l.37,2.53c1.97-2.3,4.88-3.14,7.31-3.09,4.88.05,9.05,2.63,9.05,10.88v12.85h-8.63Z"/>
      <path class="cls-1" d="M792.57,223.44v-16.08h-3.94v-6.66h3.94v-1.13c0-6.8,5.2-9.47,9.99-9.47,2.67,0,5.25.84,6.99,2.53l-2.63,5.2c-.94-.8-2.02-1.12-3.14-1.12-1.36,0-2.58.84-2.58,2.86v1.13h6v6.66h-6v16.08h-8.63Z"/>
      <path class="cls-1" d="M835.38,211.9c0,8.44-6.7,12.1-13.22,12.1s-13.22-3.66-13.22-12.1,6.52-12.14,13.22-12.14,13.22,3.7,13.22,12.14ZM826.94,211.9c0-2.67-1.73-5.06-4.78-5.06s-4.78,2.39-4.78,5.06,1.74,5.02,4.78,5.02,4.78-2.2,4.78-5.02Z"/>
      <path class="cls-1" d="M846.74,200.28l.52,2.53c1.22-2.16,3.38-3.09,5.63-3.09s4.6.89,6.1,2.48l-3.47,6.24c-1.41-1.13-2.44-1.41-3.89-1.41-2.16,0-3.99,1.31-3.99,4.36v12.05h-8.63v-23.16h7.74Z"/>
      <path class="cls-1" d="M875.16,223.44v-12.85c0-2.67-.89-3.56-2.44-3.56-1.45,0-3,1.17-3.05,3.7v12.71h-8.58v-23.16h7.27l.61,2.48c1.45-2.02,3.98-3,6.38-2.95,2.34.05,4.59,1.12,5.77,3.28,1.92-2.39,4.5-3.33,7.69-3.33,5.02,0,8.86,3.09,8.86,10.78v12.89h-8.63v-12.85c0-2.44-1.12-3.42-2.39-3.42-1.45,0-3,.98-3,3.52v12.75h-8.49Z"/>
      <path class="cls-1" d="M924.47,208.86v14.58h-7.83l-.37-2.39c-1.64,1.83-3.7,2.81-6.33,2.81-5.63,0-8.77-3.23-8.77-8.35s4.92-7.46,10.03-7.46c1.17,0,3.14.28,4.69.75-.14-2.11-2.11-2.81-4.41-2.81-3.24,0-6.19.98-7.5,1.55l-1.13-5.72c3-1.45,6.24-2.16,8.91-2.16,7.03,0,12.71,1.59,12.71,9.19ZM912.27,217.48c1.31-.05,3.42-.8,3.75-2.95-.75-.42-2.3-.94-3.8-.94-1.64,0-2.63.7-2.63,1.97,0,1.59,1.5,1.92,2.67,1.92Z"/>
      <path class="cls-1" d="M950.67,219.97c-2.77,2.48-6.1,3.94-9.56,3.94-6.75,0-13.13-3.33-13.13-12s6.47-12.14,12.99-12.14c3.33,0,6.66,1.17,9.1,3.61l-4.59,4.97c-1.13-1.17-2.44-1.69-3.99-1.69-3.28,0-5.06,2.39-5.06,5.3,0,2.53,1.74,4.78,5.02,4.78,1.59,0,3.14-.66,4.31-1.92l4.92,5.16Z"/>
      <path class="cls-1" d="M957.52,189.96c2.39,0,4.83,1.45,4.83,4.36s-2.44,4.31-4.83,4.31-4.88-1.45-4.88-4.31,2.44-4.36,4.88-4.36ZM961.83,223.44v-22.79h-8.67v22.79h8.67Z"/>
      <path class="cls-1" d="M978.51,199.76c6.85,0,13.22,3.7,13.22,12.14s-6.71,12.1-13.22,12.1-13.22-3.66-13.22-12.1,6.52-12.14,13.22-12.14ZM978.51,216.92c2.91,0,4.78-2.2,4.78-5.02s-1.73-5.06-4.78-5.06-4.78,2.39-4.78,5.06,1.73,5.02,4.78,5.02ZM986.38,190.01h-8.86l-3.52,7.27v.28h7.36l5.02-7.17v-.38Z"/>
      <path class="cls-1" d="M1011.11,223.44v-12.8c0-2.86-1.64-3.84-3.23-3.84-2.06,0-3.98,1.41-3.98,4.45v12.19h-8.53v-23.16h7.64l.37,2.53c1.97-2.3,4.88-3.14,7.31-3.09,4.88.05,9.05,2.63,9.05,10.88v12.85h-8.63Z"/>
      <path class="cls-1" d="M494.17,265.87h-26.26v-32.82h25.6v7.78h-16.46v4.69h15.52v7.55h-15.52v4.97h17.11v7.83Z"/>
      <path class="cls-1" d="M499.92,257.15c3.52,2.3,6.33,2.49,8.2,2.58,1.55,0,2.35-.38,2.35-1.13s-.75-1.13-2.44-1.27c-4.5-.14-9.94-1.97-9.94-7.6s5.25-7.6,10.69-7.6c3.75,0,7.22,1.13,9.47,2.81l-3.66,5.16c-1.27-.8-3.94-1.45-5.81-1.41-1.22,0-2.06.28-2.06,1.13,0,.42.33,1.08,1.73,1.13,4.83.14,10.64,1.5,10.64,7.64,0,5.72-5.2,7.88-10.78,7.88-4.03,0-8.58-1.13-11.21-3.05l2.81-6.28Z"/>
      <path class="cls-1" d="M532.98,236.14v6.71h5.2v6.61h-5.25v7.6c.05,1.64.98,2.25,2.3,2.25.84,0,1.83-.33,2.53-.8l1.88,6.38c-1.97,1.13-4.27,1.55-6.66,1.55-4.59,0-8.72-2.11-8.58-9.38v-7.6h-3.7v-6.61h3.7v-5.77l8.58-.94Z"/>
      <path class="cls-1" d="M564.49,251.29v14.58h-7.83l-.38-2.39c-1.64,1.83-3.7,2.81-6.33,2.81-5.63,0-8.77-3.24-8.77-8.35s4.92-7.45,10.03-7.45c1.17,0,3.14.28,4.69.75-.14-2.11-2.11-2.81-4.41-2.81-3.24,0-6.19.98-7.5,1.55l-1.13-5.72c3-1.45,6.24-2.16,8.91-2.16,7.03,0,12.71,1.59,12.71,9.19ZM552.3,259.91c1.31-.05,3.42-.8,3.75-2.95-.75-.42-2.3-.94-3.8-.94-1.64,0-2.63.7-2.63,1.97,0,1.59,1.5,1.92,2.67,1.92Z"/>
      <path class="cls-1" d="M585.78,233.05h8.63v32.82h-7.69l-.37-2.49c-1.97,2.25-5.06,3.05-7.64,2.91-6.8-.42-10.6-4.69-10.6-12s4.5-12.1,11.25-12.1c2.95,0,5.16.94,6.42,2.49v-11.63ZM576.69,254.29c0,3.23,2.06,5.06,4.64,5.06,2.91,0,4.64-2.39,4.64-4.83,0-2.81-1.59-5.35-4.64-5.35-2.58,0-4.64,1.88-4.64,5.11Z"/>
      <path class="cls-1" d="M599.36,265.87v-23.16h8.63v23.16h-8.63ZM610.09,232.76h-8.02l-2.67,7.36v.28h7.22l3.47-7.27v-.37Z"/>
      <path class="cls-1" d="M614.09,257.15c3.52,2.3,6.33,2.49,8.21,2.58,1.55,0,2.34-.38,2.34-1.13s-.75-1.13-2.44-1.27c-4.5-.14-9.94-1.97-9.94-7.6s5.25-7.6,10.69-7.6c3.75,0,7.22,1.13,9.47,2.81l-3.66,5.16c-1.27-.8-3.94-1.45-5.81-1.41-1.22,0-2.06.28-2.06,1.13,0,.42.33,1.08,1.74,1.13,4.83.14,10.64,1.5,10.64,7.64,0,5.72-5.2,7.88-10.78,7.88-4.03,0-8.58-1.13-11.21-3.05l2.81-6.28Z"/>
      <path class="cls-1" d="M647.15,236.14v6.71h5.2v6.61h-5.25v7.6c.05,1.64.98,2.25,2.3,2.25.84,0,1.83-.33,2.53-.8l1.88,6.38c-1.97,1.13-4.27,1.55-6.66,1.55-4.59,0-8.72-2.11-8.58-9.38v-7.6h-3.7v-6.61h3.7v-5.77l8.58-.94Z"/>
      <path class="cls-1" d="M661.13,232.39c2.39,0,4.83,1.45,4.83,4.36s-2.44,4.31-4.83,4.31-4.88-1.45-4.88-4.31,2.44-4.36,4.88-4.36ZM665.45,265.87v-22.79h-8.67v22.79h8.67Z"/>
      <path class="cls-1" d="M691.69,262.4c-2.77,2.49-6.1,3.94-9.56,3.94-6.75,0-13.13-3.33-13.13-12s6.47-12.14,12.99-12.14c3.33,0,6.66,1.17,9.1,3.61l-4.59,4.97c-1.13-1.17-2.44-1.69-3.99-1.69-3.28,0-5.06,2.39-5.06,5.3,0,2.53,1.73,4.78,5.02,4.78,1.59,0,3.14-.66,4.31-1.92l4.92,5.16Z"/>
      <path class="cls-1" d="M716.58,251.29v14.58h-7.83l-.37-2.39c-1.64,1.83-3.7,2.81-6.33,2.81-5.63,0-8.77-3.24-8.77-8.35s4.92-7.45,10.03-7.45c1.17,0,3.14.28,4.69.75-.14-2.11-2.11-2.81-4.41-2.81-3.23,0-6.19.98-7.5,1.55l-1.13-5.72c3-1.45,6.24-2.16,8.91-2.16,7.03,0,12.71,1.59,12.71,9.19ZM704.39,259.91c1.31-.05,3.42-.8,3.75-2.95-.75-.42-2.3-.94-3.8-.94-1.64,0-2.63.7-2.63,1.97,0,1.59,1.5,1.92,2.67,1.92Z"/>
      <path class="cls-1" d="M757.23,242.7l-14.35,32.96h-9l4.69-10.83-9.19-22.13h9.14l1.97,5.53,2.53,8.02,2.81-8.06,2.16-5.49h9.24Z"/>
      <path class="cls-1" d="M794.41,242.75c-2.39-2.25-5.3-2.86-7.5-2.86-5.35,0-8.82,3.19-8.82,9.61,0,4.22,2.2,9.42,8.82,9.42,1.73,0,4.45-.33,6.33-1.69v-4.22h-8.3v-7.27h16.03v14.58c-2.06,4.17-7.78,6.42-14.11,6.42-12.99,0-17.91-8.67-17.91-17.25s5.63-17.39,17.96-17.39c4.55,0,8.58.94,12.89,5.3l-5.39,5.35Z"/>
      <path class="cls-1" d="M829.41,256.72h-16.18c.61,2.06,3.28,2.95,5.16,2.95,2.53,0,4.45-.75,5.95-1.88l4.22,4.74c-2.77,2.58-6.56,3.84-10.55,3.84-7.31,0-13.5-3.61-13.5-12.05s6.61-12.19,12.89-12.19c8.21,0,13.97,5.44,12,14.58ZM821.68,251.19c-.23-3.66-7.83-3.8-8.39,0h8.39Z"/>
      <path class="cls-1" d="M858.49,254.33c0,8.44-6.7,12.1-13.22,12.1s-13.22-3.66-13.22-12.1,6.52-12.14,13.22-12.14,13.22,3.7,13.22,12.14ZM850.05,254.33c0-2.67-1.74-5.06-4.78-5.06s-4.78,2.39-4.78,5.06,1.73,5.02,4.78,5.02,4.78-2.2,4.78-5.02Z"/>
      <path class="cls-1" d="M869.25,267.51c-.09,3.61,2.06,4.41,4.36,4.41s4.27-1.08,4.27-3.33c0-1.69-1.03-3.09-4.17-3.09-7.78,0-12.89-4.5-12.89-11.67s5.72-11.86,12.89-11.86c1.59,0,3.24.33,4.78.89.8-1.03,1.73-2.2,2.49-3.19l6.24,4.45-3,3.56c1.69,1.88,2.3,4.17,2.2,6.24-.05,2.91-1.55,5.77-4.22,7.69,4.27,2.44,4.55,5.72,4.55,6.99,0,7.5-6.52,10.32-13.13,10.32-8.3,0-12.94-4.31-12.47-11.39h8.11ZM869.21,253.82c0,2.77,1.97,4.55,4.5,4.55,2.3,0,4.36-1.45,4.36-4.55,0-2.63-1.83-4.78-4.36-4.78s-4.5,1.69-4.5,4.78Z"/>
      <path class="cls-1" d="M898.53,242.7l.52,2.53c1.22-2.16,3.37-3.1,5.63-3.1s4.59.89,6.1,2.49l-3.47,6.24c-1.41-1.12-2.44-1.41-3.89-1.41-2.16,0-3.99,1.31-3.99,4.36v12.05h-8.63v-23.16h7.74Z"/>
      <path class="cls-1" d="M922.06,242.1c7.03,0,12.71,1.59,12.71,9.19v14.58h-7.83l-.37-2.39c-1.64,1.83-3.7,2.81-6.33,2.81-5.63,0-8.77-3.24-8.77-8.35s4.92-7.45,10.03-7.45c1.17,0,3.14.28,4.69.75-.14-2.11-2.11-2.81-4.41-2.81-3.24,0-6.19.98-7.5,1.55l-1.13-5.72c3-1.45,6.24-2.16,8.91-2.16ZM931.58,233h-8.44l-3.38,6.61v.24h7.03l4.78-6.52v-.33ZM919.9,257.99c0,1.59,1.5,1.92,2.67,1.92,1.31-.05,3.42-.8,3.75-2.95-.75-.42-2.3-.94-3.8-.94-1.64,0-2.63.7-2.63,1.97Z"/>
      <path class="cls-1" d="M941.52,265.87v-16.08h-3.94v-6.66h3.94v-1.12c0-6.8,5.2-9.47,9.99-9.47,2.67,0,5.25.84,6.99,2.53l-2.63,5.2c-.94-.8-2.02-1.13-3.14-1.13-1.36,0-2.58.84-2.58,2.86v1.12h6v6.66h-6v16.08h-8.63Z"/>
      <path class="cls-1" d="M964.55,232.39c2.39,0,4.83,1.45,4.83,4.36s-2.44,4.31-4.83,4.31-4.88-1.45-4.88-4.31,2.44-4.36,4.88-4.36ZM968.86,265.87v-22.79h-8.67v22.79h8.67Z"/>
      <path class="cls-1" d="M995.11,262.4c-2.77,2.49-6.09,3.94-9.56,3.94-6.75,0-13.13-3.33-13.13-12s6.47-12.14,12.99-12.14c3.33,0,6.66,1.17,9.1,3.61l-4.6,4.97c-1.13-1.17-2.44-1.69-3.99-1.69-3.28,0-5.06,2.39-5.06,5.3,0,2.53,1.73,4.78,5.02,4.78,1.59,0,3.14-.66,4.31-1.92l4.92,5.16Z"/>
      <path class="cls-1" d="M1020,251.29v14.58h-7.83l-.38-2.39c-1.64,1.83-3.7,2.81-6.33,2.81-5.63,0-8.77-3.24-8.77-8.35s4.92-7.45,10.03-7.45c1.17,0,3.14.28,4.69.75-.14-2.11-2.11-2.81-4.41-2.81-3.23,0-6.19.98-7.5,1.55l-1.13-5.72c3-1.45,6.24-2.16,8.91-2.16,7.03,0,12.71,1.59,12.71,9.19ZM1007.81,259.91c1.31-.05,3.42-.8,3.75-2.95-.75-.42-2.3-.94-3.8-.94-1.64,0-2.63.7-2.63,1.97,0,1.59,1.5,1.92,2.67,1.92Z"/>
      <path class="cls-1" d="M483.58,275.47h8.63v32.82h-7.69l-.37-2.49c-1.97,2.25-5.06,3.05-7.64,2.91-6.8-.42-10.6-4.69-10.6-12s4.5-12.1,11.25-12.1c2.95,0,5.16.94,6.42,2.49v-11.63ZM474.48,296.71c0,3.23,2.06,5.06,4.64,5.06,2.91,0,4.64-2.39,4.64-4.83,0-2.81-1.59-5.34-4.64-5.34-2.58,0-4.64,1.88-4.64,5.11Z"/>
      <path class="cls-1" d="M520.81,299.15h-16.18c.61,2.06,3.28,2.95,5.16,2.95,2.53,0,4.45-.75,5.96-1.88l4.22,4.74c-2.77,2.58-6.56,3.84-10.55,3.84-7.31,0-13.5-3.61-13.5-12.05s6.61-12.19,12.89-12.19c8.21,0,13.97,5.44,12,14.58ZM513.07,293.62c-.24-3.66-7.83-3.8-8.39,0h8.39Z"/>
      <path class="cls-1" d="M542.7,294.14c.09,4.92,2.81,6.8,6.05,6.8,3.89,0,6.19-2.39,6.19-6.85v-10.83h-8.72v-7.78h18v18.66c0,8.63-5.49,14.86-15.57,14.86-9.47,0-15-4.59-15-14.86h9.05Z"/>
      <path class="cls-1" d="M591.4,293.71v14.58h-7.83l-.38-2.39c-1.64,1.83-3.7,2.81-6.33,2.81-5.63,0-8.77-3.23-8.77-8.35s4.92-7.46,10.03-7.46c1.17,0,3.14.28,4.69.75-.14-2.11-2.11-2.81-4.41-2.81-3.23,0-6.19.98-7.5,1.55l-1.13-5.72c3-1.45,6.24-2.16,8.91-2.16,7.03,0,12.71,1.59,12.71,9.19ZM579.21,302.34c1.31-.05,3.42-.8,3.75-2.95-.75-.42-2.3-.94-3.8-.94-1.64,0-2.63.7-2.63,1.97,0,1.59,1.5,1.92,2.67,1.92Z"/>
      <path class="cls-1" d="M604.81,275.43v32.87h-8.53v-32.87h8.53Z"/>
      <path class="cls-1" d="M614.05,274.82c2.39,0,4.83,1.45,4.83,4.36s-2.44,4.31-4.83,4.31-4.88-1.45-4.88-4.31,2.44-4.36,4.88-4.36ZM618.36,308.3v-22.79h-8.67v22.79h8.67Z"/>
      <path class="cls-1" d="M624.45,299.57c3.52,2.3,6.33,2.48,8.21,2.58,1.55,0,2.34-.37,2.34-1.12s-.75-1.13-2.44-1.27c-4.5-.14-9.94-1.97-9.94-7.6s5.25-7.6,10.69-7.6c3.75,0,7.22,1.12,9.47,2.81l-3.66,5.16c-1.27-.8-3.94-1.45-5.81-1.41-1.22,0-2.06.28-2.06,1.12,0,.42.33,1.08,1.74,1.13,4.83.14,10.64,1.5,10.64,7.64,0,5.72-5.2,7.88-10.78,7.88-4.03,0-8.58-1.12-11.21-3.05l2.81-6.28Z"/>
      <path class="cls-1" d="M668.4,304.83c-2.77,2.48-6.09,3.94-9.56,3.94-6.75,0-13.13-3.33-13.13-12s6.47-12.14,12.99-12.14c3.33,0,6.66,1.17,9.1,3.61l-4.6,4.97c-1.12-1.17-2.44-1.69-3.98-1.69-3.28,0-5.06,2.39-5.06,5.3,0,2.53,1.73,4.78,5.02,4.78,1.59,0,3.14-.66,4.31-1.92l4.92,5.16Z"/>
      <path class="cls-1" d="M695.63,296.76c0,8.44-6.71,12.1-13.22,12.1s-13.22-3.66-13.22-12.1,6.52-12.14,13.22-12.14,13.22,3.7,13.22,12.14ZM687.19,296.76c0-2.67-1.73-5.06-4.78-5.06s-4.78,2.39-4.78,5.06,1.73,5.02,4.78,5.02,4.78-2.2,4.78-5.02Z"/>
    </g>
  </g>
  <rect class="cls-1" x="424.34" y="172.19" width="4.09" height="133.87"/>
  <g>
    <path class="cls-1" d="M387.93,193.9c0-33.53-27.28-60.81-60.81-60.81-21.3,0-40.93,11.12-51.95,29.2h-22.22l-8.59-6.47c4.47-5.09,7.91-11.23,9.95-18.02l5.07-2.42,3.08-18.37-6.62-2.47c-.32-1.6-.73-3.15-1.24-4.64.93.09,1.86.14,2.8.14.21,0,.43,0,.64,0,15.28-.34,27.54-13.05,27.33-28.34-.04-2.64-.44-5.24-1.2-7.74-1.06-3.41-2.52-5.88-3.08-6.76l-4.02,3.88c-3.19,3.07-7.38,4.76-11.8,4.76-4.04,0-7.95-1.44-11.02-4.06l-7.39-7.41c-.89-.9-1.77-1.81-2.65-2.72l-1-1.04c-5.09-5.25-11.91-8.14-19.22-8.14s-13.87,2.78-18.92,7.84c-5.05,5.06-7.83,11.78-7.83,18.92,0,5.95,2.01,11.71,5.6,16.36-5.53,4.74-9.21,11.25-10.74,18.95l-6.61,2.47,3.08,18.37,4.55,2.17c2.05,6.99,5.52,13.24,10.05,18.38l-8.19,6.36h-22.21c-11.01-18.08-30.64-29.2-51.95-29.2-33.53,0-60.81,27.28-60.81,60.81,0,19.33,9.32,37.67,24.93,49.1l42.21,34.81-.02.04c3.12,2.11,4.98,5.6,4.98,9.36,0,6.22-5.06,11.28-11.28,11.28s-11.28-5.06-11.28-11.28c0-2.83,1.06-5.54,2.97-7.63l-6.64-6.1c-3.45,3.75-5.35,8.63-5.35,13.73,0,11.19,9.11,20.3,20.3,20.3s20.3-9.11,20.3-20.3c0-6.28-2.89-12.15-7.8-15.99h0s-42.89-35.37-42.89-35.37l-.63.76.58-.79c-13.37-9.73-21.36-25.4-21.36-41.91,0-28.56,23.23-51.79,51.79-51.79,16.22,0,31.3,7.57,41.03,20.18h-14.5c-7.43-6.24-16.74-9.66-26.52-9.66-22.76,0-41.27,18.52-41.27,41.27,0,12.73,5.74,24.55,15.77,32.46l44.16,34.29,1.77,1.36c.24.2.48.41.71.62.22.19.44.38.66.57.23.21.44.43.67.64.21.2.43.4.63.61.21.22.42.45.62.67.2.21.4.42.59.64.2.23.38.46.58.7.19.23.38.45.56.68.18.23.35.48.53.71.18.24.36.47.53.72.17.25.33.5.49.75.16.24.33.48.48.73.16.25.3.52.45.77.15.25.3.5.44.76.14.26.27.53.41.8.13.26.27.51.39.78.13.27.24.55.37.83.12.26.24.52.35.79.12.28.22.57.32.86.1.26.21.53.3.79.1.29.19.59.28.88.08.27.18.54.25.81.08.3.15.6.23.9.07.27.15.55.21.82.07.33.13.65.19.98.05.26.11.51.15.77.06.35.1.71.15,1.07.03.24.07.47.1.71.04.38.07.76.09,1.14.02.22.04.44.05.66.03.59.05,1.18.05,1.77,0,.01,0,.03,0,.04,0,4.65-.98,9.14-2.9,13.36l-.16.35c-5.31,11.3-16.63,18.55-29.2,18.55-17.79,0-32.26-14.47-32.26-32.26,0-7.67,2.74-15.1,7.71-20.93l-6.86-5.86c-6.36,7.46-9.87,16.97-9.87,26.78,0,22.76,18.52,41.27,41.27,41.27,13.55,0,25.97-6.58,33.61-17.3,15.67,22.74,41.66,36.59,69.56,36.59s53.87-13.84,69.54-36.57c7.64,10.71,20.05,17.28,33.6,17.28,22.76,0,41.27-18.52,41.27-41.27,0-9.81-3.5-19.33-9.87-26.78l-6.86,5.86c4.97,5.82,7.71,13.26,7.71,20.93,0,17.79-14.47,32.26-32.26,32.26-12.2,0-23.22-6.82-28.71-17.55l-.61-1.34c-1.92-4.22-2.9-8.71-2.9-13.36,0-9.72,4.32-18.82,11.86-24.98l.48-.4,1.24-.95,44.16-34.3c10.01-7.89,15.75-19.71,15.75-32.44,0-22.76-18.52-41.27-41.27-41.27-9.78,0-19.1,3.42-26.52,9.66h-14.5c9.72-12.61,24.8-20.18,41.03-20.18,28.56,0,51.79,23.23,51.79,51.79,0,16.51-7.98,32.18-21.36,41.91l-.05.03-42.89,35.36h0c-4.91,3.84-7.8,9.71-7.8,15.99,0,11.19,9.11,20.3,20.3,20.3s20.3-9.11,20.3-20.3c0-5.1-1.9-9.98-5.35-13.73l-6.64,6.1c1.92,2.09,2.97,4.8,2.97,7.63,0,6.22-5.06,11.28-11.28,11.28s-11.28-5.06-11.28-11.28c0-3.75,1.86-7.25,4.98-9.36l-.02-.04,42.21-34.81c15.61-11.43,24.93-29.77,24.93-49.1ZM113.5,203.04c-2.74-2.31-4.31-5.68-4.31-9.26,0-6.67,5.42-12.09,12.09-12.09,2.74,0,5.32.89,7.47,2.58l10.81,8.86v31.27l-26.05-21.37ZM139.55,249.29l-38.69-30.04c-7.82-6.16-12.31-15.41-12.31-25.35,0-17.79,14.47-32.26,32.26-32.26,6.79,0,13.3,2.11,18.74,6v13.82l-5.12-4.2-.06-.05c-3.71-2.93-8.36-4.55-13.09-4.55-11.64,0-21.11,9.47-21.11,21.11,0,6.27,2.76,12.18,7.58,16.2l.03.03,31.77,26.06v13.22ZM205.31,143.38l18.65,8.9,18.07-8.63c-4.22,7.34-10.65,13.03-18.29,15.9-7.66-2.89-14.19-8.71-18.43-16.18ZM211.25,136.22v-19.2l8.21-3.06v26.17l-8.21-3.92ZM228.47,140.13v-26.17l8.21,3.06v19.2l-8.21,3.92ZM251.25,129.26l-5.56,2.65v-11.53l6.63,2.47-1.07,6.4ZM210.83,66.07c3.51-3.51,8.18-5.45,13.15-5.45s9.82,2.01,13.36,5.66l.99,1.03c.91.94,1.82,1.89,2.75,2.82l7.5,7.53.22.2c4.57,3.96,10.42,6.14,16.47,6.14,4.22,0,8.3-1.04,11.93-3,.01.27.02.54.03.81.15,10.83-8.54,19.84-19.36,20.08-2.92.06-5.72-.49-8.36-1.64-1.38-1.79-2.94-3.43-4.68-4.89-5.74-4.81-13.15-7.45-20.86-7.45-5.01,0-9.89,1.12-14.27,3.22-2.75-3.32-4.3-7.53-4.31-11.89,0-4.97,1.93-9.64,5.44-13.16ZM202.23,131.91l-5.56-2.65-1.07-6.4,6.63-2.47v11.53ZM223.96,96.92c10.68,0,17.7,6.06,21.14,13.62l-21.14-7.88-21.14,7.88c3.44-7.56,10.46-13.62,21.14-13.62ZM209.88,162.13c3.75,2.81,7.95,5.02,12.47,6.49l1.39.45,1.39-.45c4.53-1.47,8.73-3.71,12.51-6.57l7.89,5.94c-5.41,6.18-13.2,9.77-21.56,9.77s-16.19-3.61-21.6-9.82l7.5-5.82ZM308.41,223.23v-30.1l10.8-8.85c2.15-1.69,4.73-2.58,7.47-2.58,6.67,0,12.09,5.43,12.09,12.09,0,3.58-1.57,6.95-4.32,9.26l-26.04,21.36v-1.17ZM308.41,167.62c5.43-3.88,11.93-5.98,18.71-5.98,17.79,0,32.26,14.47,32.26,32.26,0,9.95-4.49,19.19-12.29,25.33l-38.68,30.03v-13.2l31.76-26.05.03-.03c4.82-4.03,7.58-9.93,7.58-16.2,0-11.64-9.47-21.11-21.11-21.11-4.74,0-9.39,1.62-13.09,4.55l-.06.05-5.11,4.19v-13.84ZM299.39,171.31v85.09c-8.63,7.83-13.55,18.85-13.55,30.56,0,5.16.95,10.17,2.81,14.93-13.61,22.64-38.19,36.61-64.67,36.61s-51.08-13.98-64.68-36.63c.05-.14.1-.28.15-.42.1-.27.2-.54.29-.81.13-.36.25-.72.36-1.08.09-.27.17-.55.25-.82.11-.36.21-.73.31-1.09.07-.27.15-.55.22-.83.09-.37.17-.74.26-1.11.06-.27.12-.55.17-.82.07-.38.14-.76.2-1.15.04-.27.09-.54.13-.81.06-.4.1-.8.15-1.21.03-.26.06-.51.09-.77.04-.44.07-.89.1-1.34.01-.22.03-.43.04-.65.03-.67.05-1.33.05-2h0c0-.38,0-.76-.02-1.13,0-.13-.01-.25-.01-.37,0-.25-.02-.5-.03-.75,0-.15-.02-.3-.03-.44-.01-.23-.03-.45-.05-.68-.01-.16-.03-.32-.04-.47-.02-.21-.04-.43-.06-.64-.02-.16-.04-.32-.06-.49-.03-.21-.05-.42-.08-.62-.02-.16-.05-.33-.07-.49-.03-.2-.06-.41-.09-.61-.03-.16-.06-.33-.08-.49-.04-.2-.07-.4-.11-.6-.03-.16-.06-.33-.1-.49-.04-.2-.08-.4-.13-.6-.04-.16-.07-.33-.11-.49-.05-.2-.09-.4-.14-.59-.04-.16-.08-.32-.12-.48-.05-.2-.11-.39-.16-.59-.04-.16-.09-.32-.13-.48-.06-.2-.12-.39-.18-.59-.05-.16-.09-.31-.14-.47-.06-.2-.13-.4-.2-.59-.05-.15-.1-.3-.15-.45-.07-.2-.14-.4-.22-.61-.05-.14-.1-.29-.16-.43-.08-.21-.16-.42-.25-.63-.05-.13-.1-.26-.16-.39-.1-.23-.19-.46-.29-.69-.05-.11-.09-.21-.14-.32-.3-.67-.61-1.34-.94-1.99-.05-.1-.1-.2-.16-.3-.12-.23-.23-.45-.36-.68-.07-.12-.14-.25-.21-.37-.11-.2-.22-.4-.33-.59-.08-.13-.15-.26-.23-.39-.11-.19-.22-.37-.33-.55-.08-.13-.17-.27-.25-.4-.11-.18-.22-.36-.34-.53-.09-.13-.18-.27-.27-.4-.12-.17-.23-.35-.35-.52-.09-.13-.19-.27-.28-.4-.12-.17-.24-.33-.36-.5-.1-.13-.2-.27-.3-.4-.12-.16-.25-.33-.37-.49-.1-.13-.2-.26-.31-.39-.13-.16-.26-.32-.39-.48-.1-.13-.21-.26-.32-.38-.13-.16-.27-.31-.4-.47-.11-.12-.22-.25-.32-.37-.14-.16-.28-.31-.42-.47-.11-.12-.22-.24-.33-.36-.15-.16-.29-.31-.44-.46-.11-.11-.22-.23-.33-.34-.15-.16-.31-.31-.47-.46-.11-.11-.22-.22-.33-.33-.16-.16-.33-.31-.5-.47-.11-.1-.21-.2-.32-.3-.02-.02-.04-.03-.05-.05v-85.12h44.96c7.09,9.73,18.32,15.48,30.45,15.48s23.35-5.75,30.45-15.48h44.96Z"/>
    <polygon class="cls-1" points="220.49 85.12 227.47 85.12 227.47 79.13 233.46 79.13 233.46 72.15 227.47 72.15 227.47 66.17 220.49 66.17 220.49 72.15 214.51 72.15 214.51 79.13 220.49 79.13 220.49 85.12"/>
    <path class="cls-1" d="M251.43,252.21l-.71,1.78c-1.22.13-2.27.82-2.9,1.81,0,0-3.4,1.4-3.4,1.4-.2.08-.45.33-.45.69,0,.24.12.46.3.6-.03.04-.02.1,0,.16l1.1,2.48c.51.07,1.03,0,1.51-.22,1.09-.46,1.32-.6,1.85-.6.78,0,1.42.63,1.42,1.42s-.59,1.37-1.34,1.41h-.46c-.28,0-.64-.08-.86-.23-.36-.19-.61-.55-.67-.96-.77.69-1.06,1.41-1.08,2.13-.01.39-.01.89-.01,1.44h6.14l-5.24,3.29c-.2.13-.46.13-.67,0l-8.17-5.12v-2.01c0-.41-.21-.8-.56-1.02l-2.37-1.5v7.56c0,.42.21.8.57,1.02l8.39,5.26c-.05.29-.08.57-.09.87l-5.94,3.72v-2.18c0-.41-.21-.8-.56-1.02l-2.37-1.5v9.89c0,.95,1.04,1.53,1.85,1.02l8.47-5.31,4.84,10.08-7.15,4.5c-.35.22-.56.61-.56,1.02v4.63s-3.68-1.28-3.68-1.28c-.49-.17-.81-.63-.81-1.14v-2.6c0-.51-.32-.96-.8-1.14l-2.13-.77v8.86c0,.51.33.97.81,1.14l10.36,3.66c.79.28,1.62-.3,1.62-1.13v-5.43c.03-.66.56-1.18,1.22-1.18h5.52l3.6,7.59c.2.42.62.68,1.09.68h6.23l-1.28,3.68c-.17.49-.63.81-1.14.81h-2.6c-.51,0-.96.32-1.14.8l-.77,2.13h8.86c.51,0,.97-.33,1.14-.81l3.66-10.36c.29-.79-.3-1.62-1.13-1.62l-6.26-.11c-.82-.01-1.39-.83-1.12-1.61l1.82-5.14h3.47c4.31,0,8.03-3.39,8.03-7.7,0-1.71-.35-2.72-.87-3.82l-4.42-9.38c-.72-1.82.62-3.8,2.58-3.8h.05c.33.67,1.01,1.1,1.75,1.11h.74c2.12,0,4-1.34,4.71-3.34h-7.25c-1.09,0-2.19.34-3.14,1.08-1.91,1.5-2.43,3.93-1.32,6.34l4.49,9.31c.31.71.49,1.5.48,2.33-.02,3.16-2.66,5.67-5.82,5.67h-2.91c-2.79,0-5.06-2.27-5.06-5.06,0-.87.55-2.44.55-2.44l5.31-14.98c1.24-3.5,1.01-7.38-.75-10.65-.76-1.4-1.84-2.79-3.38-4.01-2.4-1.94-5.66-2.85-7.79-2.85-1.2,0-2.34.22-3.4.62Z"/>
    <path class="cls-1" d="M251.63,215.44c-.35-.05-.63-.33-.67-.69-.68-7.1-6.67-12.67-13.95-12.67-.36,0-.71.01-1.06.04-.28.02-.54-.1-.71-.32-2.55-3.45-6.65-5.69-11.26-5.69s-8.71,2.24-11.26,5.69c-.16.22-.43.34-.71.32-.35-.03-.71-.04-1.06-.04-7.27,0-13.27,5.57-13.95,12.67-.03.36-.31.64-.67.69-5.04.72-8.92,5.06-8.92,10.3s3.89,9.58,8.92,10.3c.35.05.63.33.67.69.68,7.1,6.67,12.67,13.95,12.67.36,0,.71-.01,1.06-.04.28-.02.54.1.71.32,1.11,1.49,2.5,2.76,4.1,3.72,0,0,0,0,0,0,2.11,1.24,3.52,3.53,3.53,6.14l.03,45.94c0,.33-.2.62-.51.74l-16.81,5.84c-.31.12-.51.41-.51.74v.62h21.45s.03,0,.03,0h21.41s0,0,0,0h0v-.62c0-.33-.2-.62-.51-.74l-16.81-5.84c-.31-.11-.51-.41-.51-.74l.03-46.08c.05-2.56,1.45-4.79,3.52-6.01,1.6-.96,3-2.22,4.1-3.72.16-.22.43-.34.71-.32.35.03.71.04,1.06.04,7.27,0,13.27-5.57,13.95-12.67.03-.36.31-.64.67-.69,5.04-.72,8.92-5.06,8.92-10.3s-3.88-9.58-8.92-10.3Z"/>
    <path class="cls-1" d="M213.08,300.67v-8.86l-2.13.77c-.48.17-.8.63-.8,1.14v2.6c0,.51-.33.97-.81,1.14l-3.68,1.28v-4.63c0-.42-.21-.8-.56-1.02l-7.15-4.5,4.84-10.08,8.47,5.31c.8.5,1.85-.07,1.85-1.02v-9.89l-2.37,1.5c-.35.22-.56.61-.56,1.02v2.18l-5.94-3.72c0-.29-.04-.58-.09-.87l8.39-5.26c.35-.22.57-.61.57-1.02v-7.56l-2.37,1.5c-.35.22-.56.61-.56,1.02v2.01l-8.17,5.12c-.2.13-.46.13-.67,0l-5.24-3.29h6.14c0-.56,0-1.05-.01-1.44-.02-.73-.31-1.44-1.08-2.13-.06.42-.31.77-.67.96-.22.15-.58.23-.86.23h-.46c-.75-.04-1.34-.65-1.34-1.41s.63-1.42,1.42-1.42c.53,0,.75.14,1.85.6.48.22,1.01.29,1.51.22l1.1-2.48c.02-.06.03-.12,0-.16.18-.14.3-.35.3-.6,0-.35-.24-.6-.45-.69,0,0-3.4-1.4-3.4-1.4-.62-.99-1.68-1.68-2.9-1.81l-.71-1.78c-1.06-.4-2.2-.62-3.4-.62-2.13,0-5.39.91-7.79,2.85-1.54,1.21-2.62,2.61-3.38,4.01-1.76,3.27-1.99,7.15-.75,10.65l5.31,14.98s.55,1.57.55,2.44c0,2.79-2.27,5.06-5.06,5.06h-2.91c-3.16,0-5.8-2.51-5.82-5.67,0-.83.17-1.62.48-2.33l4.49-9.31c1.1-2.41.59-4.84-1.32-6.34-.94-.74-2.05-1.09-3.14-1.08h-7.25c.71,2,2.59,3.33,4.71,3.34h.74c.75,0,1.43-.44,1.75-1.11h.05c1.96,0,3.3,1.97,2.58,3.8l-4.42,9.38c-.52,1.1-.87,2.11-.87,3.82,0,4.31,3.72,7.7,8.03,7.7h3.47l1.82,5.14c.28.78-.29,1.6-1.12,1.61l-6.26.11c-.84,0-1.42.83-1.13,1.62l3.66,10.36c.17.49.63.81,1.14.81h8.86l-.77-2.13c-.17-.48-.63-.8-1.14-.8h-2.6c-.51,0-.97-.33-1.14-.81l-1.28-3.68h6.23c.46,0,.89-.27,1.09-.68l3.6-7.59h5.52c.66,0,1.19.53,1.21,1.18v5.43c.01.84.84,1.42,1.63,1.13l10.36-3.66c.49-.17.81-.63.81-1.14Z"/>
  </g>
</svg>